<?xml version="1.0" standalone="no"?>
<svg xmlns="http://www.w3.org/2000/svg" viewBox="0 0 134 28" width="134" height="28"><path fill="#0f1c93" fill-rule="nonzero" d="M20.54 15.31Q20.66 15.72 20.66 16.37L20.66 16.37Q19.56 16.30 17.78 16.30L17.78 16.30Q16.08 16.30 14.86 16.37L14.86 16.37Q14.86 15.79 15 15.34L15 15.34Q15.91 15.24 16.22 14.93Q16.54 14.62 16.54 13.78L16.54 13.78Q16.54 13.30 16.46 12.58L16.46 12.58L15.60 4.34L10.63 16.34Q10.22 16.51 9.65 16.51L9.65 16.51L4.06 4.37L3.29 12.07Q3.22 12.79 3.22 13.32L3.22 13.32Q3.22 14.42 3.59 14.84Q3.96 15.26 4.85 15.34L4.85 15.34Q4.97 15.74 4.97 16.37L4.97 16.37Q3.82 16.30 2.40 16.30L2.40 16.30Q0.98 16.30 0 16.37L0 16.37Q0 15.74 0.12 15.34L0.12 15.34Q0.79 15.26 1.15 15Q1.51 14.74 1.72 14.03Q1.92 13.32 2.06 11.86L2.06 11.86L2.83 3.31Q2.86 3.10 2.86 2.74L2.86 2.74Q2.86 1.80 2.47 1.42Q2.09 1.03 1.22 1.03L1.22 1.03Q1.10 0.65 1.10 0L1.10 0Q1.82 0.07 2.93 0.07L2.93 0.07Q3.82 0.07 4.75 0L4.75 0L10.75 13.27L15.98 0Q16.80 0.07 17.86 0.07L17.86 0.07Q18.72 0.07 19.68 0L19.68 0Q19.68 0.58 19.56 1.03L19.56 1.03Q18.74 1.03 18.32 1.44Q17.90 1.85 17.90 2.86L17.90 2.86Q17.90 3.24 17.93 3.46L17.93 3.46L18.79 12.26Q18.91 13.46 19.10 14.10Q19.30 14.74 19.63 15Q19.97 15.26 20.54 15.31L20.54 15.31ZM33.07 4.30Q33.89 4.30 34.90 4.25L34.90 4.25Q34.90 4.92 34.80 5.30L34.80 5.30Q34.20 5.40 33.70 5.77Q33.19 6.14 32.76 6.98L32.76 6.98L29.90 12.58L29.90 13.08Q29.90 14.04 30.01 14.45Q30.12 14.86 30.46 15.02Q30.79 15.19 31.56 15.26L31.56 15.26Q31.70 15.79 31.70 16.34L31.70 16.34Q29.78 16.30 28.85 16.30L28.85 16.30Q27.14 16.30 25.80 16.34L25.80 16.34Q25.80 15.72 25.94 15.26L25.94 15.26Q26.78 15.19 27.12 15.05Q27.46 14.90 27.58 14.51Q27.70 14.11 27.70 13.18L27.70 13.18L27.70 12.60L24.26 6.36Q23.90 5.78 23.58 5.57Q23.26 5.35 22.70 5.33L22.70 5.33Q22.58 4.90 22.58 4.25L22.58 4.25Q23.83 4.30 24.91 4.30L24.91 4.30Q27.14 4.30 27.82 4.25L27.82 4.25Q27.82 4.85 27.72 5.30L27.72 5.30Q27.19 5.35 26.95 5.50Q26.71 5.64 26.71 5.90L26.71 5.90Q26.71 6.22 27.05 6.77L27.05 6.77Q28.01 8.38 29.50 11.42L29.50 11.42Q30.48 9.26 31.78 6.84L31.78 6.84Q32.14 6.19 32.14 5.88L32.14 5.88Q32.14 5.62 31.91 5.50Q31.68 5.38 31.15 5.33L31.15 5.33Q30.98 4.73 30.98 4.25L30.98 4.25Q31.54 4.30 33.07 4.30L33.07 4.30ZM47.59 16.46Q46.27 16.46 45.20 16.20Q44.14 15.94 42.89 15.41L42.89 15.41Q43.15 13.80 43.08 12.62L43.08 12.62Q43.61 12.46 44.38 12.46L44.38 12.46Q44.42 13.94 45.32 14.62Q46.22 15.29 47.86 15.29L47.86 15.29Q49.25 15.29 50.05 14.86Q50.86 14.42 50.86 13.70L50.86 13.70Q50.86 13.20 50.46 12.83Q50.06 12.46 49.50 12.20Q48.94 11.95 47.86 11.57L47.86 11.57Q46.37 11.06 45.47 10.62Q44.57 10.18 43.91 9.40Q43.25 8.62 43.25 7.44L43.25 7.44Q43.25 5.83 44.46 4.99Q45.67 4.15 47.78 4.15L47.78 4.15Q48.91 4.15 50.03 4.37Q51.14 4.58 51.77 4.92L51.77 4.92Q51.74 5.18 51.74 5.74L51.74 5.74Q51.74 6.82 51.89 7.44L51.89 7.44Q51.38 7.70 50.57 7.70L50.57 7.70Q50.23 6.34 49.48 5.80Q48.72 5.26 47.62 5.26L47.62 5.26Q46.56 5.26 45.90 5.62Q45.24 5.98 45.24 6.67L45.24 6.67Q45.24 7.46 46.01 7.94Q46.78 8.42 48.41 9L48.41 9Q49.80 9.48 50.69 9.91Q51.58 10.34 52.20 11.08Q52.82 11.81 52.82 12.91L52.82 12.91Q52.82 14.50 51.53 15.48Q50.23 16.46 47.59 16.46L47.59 16.46ZM67.66 5.06Q67.42 5.98 67.42 7.80L67.42 7.80Q66.96 8.02 66.22 8.02L66.22 8.02Q66.14 6.46 65.36 5.82Q64.58 5.18 63.12 5.18L63.12 5.18Q60.72 5.18 59.52 6.50Q58.32 7.82 58.32 9.74L58.32 9.74Q58.32 11.26 58.96 12.47Q59.59 13.68 60.78 14.38Q61.97 15.07 63.60 15.07L63.60 15.07Q64.58 15.07 65.62 14.84Q66.65 14.62 67.51 14.18L67.51 14.18Q67.66 14.30 67.78 14.53Q67.90 14.76 67.92 14.95L67.92 14.95Q66.58 15.72 65.38 16.09Q64.18 16.46 62.66 16.46L62.66 16.46Q60.70 16.46 59.16 15.67Q57.62 14.88 56.76 13.46Q55.90 12.05 55.90 10.22L55.90 10.22Q55.90 8.28 56.88 6.90Q57.86 5.52 59.48 4.82Q61.10 4.13 62.98 4.13L62.98 4.13Q64.25 4.13 65.35 4.36Q66.46 4.58 67.66 5.06L67.66 5.06ZM80.78 13.49Q81.43 14.45 82.12 14.84Q82.80 15.24 83.81 15.29L83.81 15.29Q83.81 15.98 83.71 16.30L83.71 16.30Q81.67 16.30 80.26 16.46L80.26 16.46Q80.09 16.18 79.61 15.46L79.61 15.46L78.53 13.70Q77.64 12.22 76.18 11.28L76.18 11.28L75.41 11.30L74.71 11.28L74.71 13.46Q74.71 14.26 74.83 14.64Q74.95 15.02 75.23 15.17Q75.50 15.31 76.08 15.34L76.08 15.34Q76.18 15.62 76.18 16.34L76.18 16.34Q75.29 16.30 73.56 16.30L73.56 16.30Q72.29 16.30 70.94 16.34L70.94 16.34Q70.94 15.67 71.06 15.34L71.06 15.34Q71.66 15.29 71.96 15.14Q72.26 15 72.38 14.64Q72.50 14.28 72.50 13.56L72.50 13.56L72.50 7.06Q72.50 6.02 72.22 5.69Q71.93 5.35 71.06 5.30L71.06 5.30Q70.94 4.94 70.94 4.25L70.94 4.25Q71.86 4.30 73.58 4.30L73.58 4.30L75.31 4.27Q76.56 4.22 77.21 4.22L77.21 4.22Q79.51 4.22 80.69 5.11Q81.86 6 81.86 7.39L81.86 7.39Q81.86 8.78 80.98 9.68Q80.09 10.58 78.50 10.90L78.50 10.90Q79.10 11.26 79.50 11.72Q79.90 12.19 80.78 13.49L80.78 13.49ZM75.62 10.10Q77.35 10.10 78.46 9.49Q79.56 8.88 79.56 7.70L79.56 7.70Q79.56 5.26 76.20 5.26L76.20 5.26Q75.43 5.26 74.71 5.40L74.71 5.40L74.71 10.03Q75.22 10.10 75.62 10.10L75.62 10.10ZM86.74 16.34Q86.74 15.60 86.86 15.26L86.86 15.26Q87.46 15.22 87.76 15.07Q88.06 14.93 88.18 14.57Q88.30 14.21 88.30 13.49L88.30 13.49L88.30 7.08Q88.30 6.38 88.18 6.02Q88.06 5.66 87.76 5.52Q87.46 5.38 86.86 5.33L86.86 5.33Q86.74 4.97 86.74 4.25L86.74 4.25Q88.27 4.30 89.42 4.30L89.42 4.30Q90.38 4.30 92.06 4.25L92.06 4.25Q92.06 4.99 91.97 5.33L91.97 5.33Q91.10 5.38 90.80 5.71Q90.50 6.05 90.50 7.08L90.50 7.08L90.50 13.49Q90.50 14.52 90.80 14.87Q91.10 15.22 91.97 15.26L91.97 15.26Q92.06 15.62 92.06 16.34L92.06 16.34Q90.43 16.30 89.42 16.30L89.42 16.30Q88.22 16.30 86.74 16.34L86.74 16.34ZM101.11 11.02Q102.38 11.02 103.19 10.39Q103.99 9.77 103.99 8.33L103.99 8.33Q103.99 6.96 103.14 6.16Q102.29 5.35 100.54 5.35L100.54 5.35Q100.08 5.35 99.48 5.50L99.48 5.50L99.48 13.22Q99.48 14.35 99.91 14.78Q100.34 15.22 101.40 15.26L101.40 15.26Q101.52 15.62 101.52 16.34L101.52 16.34Q100.18 16.30 98.74 16.30L98.74 16.30Q96.91 16.30 95.71 16.34L95.71 16.34Q95.71 15.60 95.83 15.26L95.83 15.26Q96.67 15.22 96.97 14.87Q97.27 14.52 97.27 13.49L97.27 13.49L97.27 7.08Q97.27 6.38 97.15 6.02Q97.03 5.66 96.73 5.52Q96.43 5.38 95.83 5.33L95.83 5.33Q95.71 4.97 95.71 4.25L95.71 4.25Q97.97 4.30 98.66 4.30L98.66 4.30L101.54 4.25Q104.02 4.25 105.17 5.28Q106.32 6.31 106.32 7.92L106.32 7.92Q106.32 9.07 105.77 10.03Q105.22 10.99 104.12 11.57Q103.03 12.14 101.50 12.14L101.50 12.14Q100.56 12.14 100.03 11.98L100.03 11.98Q99.98 11.64 99.98 11.47L99.98 11.47Q99.98 11.16 100.06 10.94L100.06 10.94Q100.42 11.02 101.11 11.02L101.11 11.02ZM120.12 4.25Q120.05 5.54 120.29 7.37L120.29 7.37Q119.78 7.58 119.11 7.58L119.11 7.58Q119.06 6.43 118.50 5.88Q117.94 5.33 116.74 5.33L116.74 5.33L115.68 5.33L115.68 13.56Q115.68 14.30 115.81 14.65Q115.94 15 116.29 15.14Q116.64 15.29 117.36 15.34L117.36 15.34Q117.48 15.62 117.48 16.34L117.48 16.34Q115.70 16.30 114.58 16.30L114.58 16.30Q113.18 16.30 111.60 16.34L111.60 16.34Q111.60 15.62 111.72 15.34L111.72 15.34Q112.44 15.29 112.81 15.14Q113.18 15 113.33 14.64Q113.47 14.28 113.47 13.56L113.47 13.56L113.47 5.33L112.49 5.33Q111.53 5.33 111.01 5.58Q110.50 5.83 110.26 6.29Q110.02 6.74 109.85 7.58L109.85 7.58Q109.08 7.58 108.72 7.37L108.72 7.37Q109.08 5.74 109.08 4.25L109.08 4.25Q110.33 4.30 114.58 4.30L114.58 4.30Q118.90 4.30 120.12 4.25L120.12 4.25ZM128.21 16.46Q126.89 16.46 125.82 16.20Q124.75 15.94 123.50 15.41L123.50 15.41Q123.77 13.80 123.70 12.62L123.70 12.62Q124.22 12.46 124.99 12.46L124.99 12.46Q125.04 13.94 125.94 14.62Q126.84 15.29 128.47 15.29L128.47 15.29Q129.86 15.29 130.67 14.86Q131.47 14.42 131.47 13.70L131.47 13.70Q131.47 13.20 131.08 12.83Q130.68 12.46 130.12 12.20Q129.55 11.95 128.47 11.57L128.47 11.57Q126.98 11.06 126.08 10.62Q125.18 10.18 124.52 9.40Q123.86 8.62 123.86 7.44L123.86 7.44Q123.86 5.83 125.08 4.99Q126.29 4.15 128.40 4.15L128.40 4.15Q129.53 4.15 130.64 4.37Q131.76 4.58 132.38 4.92L132.38 4.92Q132.36 5.18 132.36 5.74L132.36 5.74Q132.36 6.82 132.50 7.44L132.50 7.44Q132.00 7.70 131.18 7.70L131.18 7.70Q130.85 6.34 130.09 5.80Q129.34 5.26 128.23 5.26L128.23 5.26Q127.18 5.26 126.52 5.62Q125.86 5.98 125.86 6.67L125.86 6.67Q125.86 7.46 126.62 7.94Q127.39 8.42 129.02 9L129.02 9Q130.42 9.48 131.30 9.91Q132.19 10.34 132.82 11.08Q133.44 11.81 133.44 12.91L133.44 12.91Q133.44 14.50 132.14 15.48Q130.85 16.46 128.21 16.46L128.21 16.46Z"></path><line x1="40.03199999999999" y1="26.512" x2="93.40799999999999" y2="26.512" stroke="#0f1c93" stroke-linecap="round"></line></svg>